name rise43.5482peak65.4966fall89.1036.mot
datacolumns 19
datarows 29
range 4.05164500000000 4.09831100000000
endheader
time	ground_force1_vx	ground_force1_vy	ground_force1_vz	ground_force1_px	ground_force1_py	ground_force1_pz	ground_force2_vx	ground_force2_vy	ground_force2_vz	ground_force2_px	ground_force2_py	ground_force2_pz	ground_torque1_x	ground_torque1_y	ground_torque1_z	ground_torque2_x	ground_torque2_y	ground_torque2_z	
4.05164500000000	-8.47995900000000	41.32070700000000	-8.24609600000000	0.26594500000000	0.00000000000000	0.13568000000000	-51.66034100000000	818.50147300000003	-57.89551400000000	0.08040200000000	0.00000000000000	-0.06842700000000	0.00000000000000	-3.17758100000000	0.00000000000000	0.00000000000000	-15.73697200000000	0.00000000000000	
4.05331700000000	-9.29243000000000	48.30321200000000	-9.25766000000000	0.27007300000000	0.00000000000000	0.13634000000000	-52.76805600000000	815.95539699999995	-57.59834200000000	0.07931200000000	0.00000000000000	-0.06832100000000	0.00000000000000	-3.65504200000000	0.00000000000000	0.00000000000000	-15.71902700000000	0.00000000000000	
4.05498400000000	-9.94311400000000	55.33929400000000	-10.17052100000000	0.27387700000000	0.00000000000000	0.13695100000000	-53.88916300000000	813.24937699999998	-57.28411700000000	0.07822300000000	0.00000000000000	-0.06821300000000	0.00000000000000	-4.11377500000000	0.00000000000000	0.00000000000000	-15.70320900000000	0.00000000000000	
4.05664900000000	-10.40922600000000	62.33530600000000	-10.96245200000000	0.27740900000000	0.00000000000000	0.13752100000000	-55.02192700000000	810.38012500000002	-56.95246600000000	0.07713400000000	0.00000000000000	-0.06810400000000	0.00000000000000	-4.54414700000000	0.00000000000000	0.00000000000000	-15.68934100000000	0.00000000000000	
4.05831200000000	-10.67747900000000	69.22116500000000	-11.61865600000000	0.28070800000000	0.00000000000000	0.13805400000000	-56.16449400000000	807.34439499999996	-56.60302800000000	0.07604700000000	0.00000000000000	-0.06799200000000	0.00000000000000	-4.93897600000000	0.00000000000000	0.00000000000000	-15.67723000000000	0.00000000000000	
4.05998000000000	-10.74392700000000	75.95240400000000	-12.13186200000000	0.28380700000000	0.00000000000000	0.13855700000000	-57.31489700000000	804.13899200000003	-56.23545700000000	0.07496400000000	0.00000000000000	-0.06787800000000	0.00000000000000	-5.29370000000000	0.00000000000000	0.00000000000000	-15.66666400000000	0.00000000000000	
4.06164300000000	-10.61307600000000	82.50977300000000	-12.50178500000000	0.28673300000000	0.00000000000000	0.13903100000000	-58.47105700000000	800.76078700000005	-55.84942200000000	0.07388400000000	0.00000000000000	-0.06776200000000	0.00000000000000	-5.60630800000000	0.00000000000000	0.00000000000000	-15.65741400000000	0.00000000000000	
4.06331600000000	-10.29644500000000	88.89684099999999	-12.73410900000000	0.28950800000000	0.00000000000000	0.13948200000000	-59.63079100000000	797.20672800000000	-55.44461400000000	0.07281000000000	0.00000000000000	-0.06764400000000	0.00000000000000	-5.87707000000000	0.00000000000000	0.00000000000000	-15.64923700000000	0.00000000000000	
4.06498200000000	-9.81081600000000	95.13612600000000	-12.83916200000000	0.29214900000000	0.00000000000000	0.13991100000000	-60.79181100000000	793.47384999999997	-55.02074600000000	0.07174200000000	0.00000000000000	-0.06752300000000	0.00000000000000	-6.10812600000000	0.00000000000000	0.00000000000000	-15.64187200000000	0.00000000000000	
4.06665000000000	-9.17634100000000	101.26434999999999	-12.83043000000000	0.29467100000000	0.00000000000000	0.14032000000000	-61.95173600000000	789.55929100000003	-54.57755200000000	0.07068200000000	0.00000000000000	-0.06740000000000	0.00000000000000	-6.30299000000000	0.00000000000000	0.00000000000000	-15.63504400000000	0.00000000000000	
4.06831200000000	-8.41471200000000	107.32734400000000	-12.72308600000000	0.29708600000000	0.00000000000000	0.14071300000000	-63.10809400000000	785.46030099999996	-54.11479700000000	0.06962900000000	0.00000000000000	-0.06727400000000	0.00000000000000	-6.46602800000000	0.00000000000000	0.00000000000000	-15.62846500000000	0.00000000000000	
4.06997700000000	-7.54751900000000	113.37510200000000	-12.53262600000000	0.29940300000000	0.00000000000000	0.14108900000000	-64.25832800000001	781.17426000000000	-53.63227300000000	0.06858700000000	0.00000000000000	-0.06714500000000	0.00000000000000	-6.60195500000000	0.00000000000000	0.00000000000000	-15.62183500000000	0.00000000000000	
4.07164700000000	-6.59489500000000	119.45732800000000	-12.27371900000000	0.30163000000000	0.00000000000000	0.14145100000000	-65.39980400000000	776.69868699999995	-53.12980400000000	0.06755400000000	0.00000000000000	-0.06701400000000	0.00000000000000	-6.71538800000000	0.00000000000000	0.00000000000000	-15.61484100000000	0.00000000000000	
4.07331300000000	-5.57451200000000	125.61976799999999	-11.95932000000000	0.30377400000000	0.00000000000000	0.14180100000000	-66.52982000000000	772.03125799999998	-52.60725000000000	0.06653300000000	0.00000000000000	-0.06688000000000	0.00000000000000	-6.81048300000000	0.00000000000000	0.00000000000000	-15.60715800000000	0.00000000000000	
4.07497700000000	-4.50093100000000	131.90144400000000	-11.60006700000000	0.30584100000000	0.00000000000000	0.14213800000000	-67.64561000000000	767.16981799999996	-52.06450400000000	0.06552500000000	0.00000000000000	-0.06674200000000	0.00000000000000	-6.89066800000000	0.00000000000000	0.00000000000000	-15.59845500000000	0.00000000000000	
4.07664900000000	-3.38531400000000	138.33287100000001	-11.20396000000000	0.30783300000000	0.00000000000000	0.14246500000000	-68.74435400000000	762.11239799999998	-51.50150000000000	0.06452900000000	0.00000000000000	-0.06660200000000	0.00000000000000	-6.95848400000000	0.00000000000000	0.00000000000000	-15.58838900000000	0.00000000000000	
4.07831100000000	-2.23542800000000	144.93519400000000	-10.77629800000000	0.30975600000000	0.00000000000000	0.14278200000000	-69.82318700000000	756.85722499999997	-50.91821200000000	0.06354700000000	0.00000000000000	-0.06645900000000	0.00000000000000	-7.01551100000000	0.00000000000000	0.00000000000000	-15.57661200000000	0.00000000000000	
4.07998200000000	-1.05591500000000	151.72015600000000	-10.31982500000000	0.31161000000000	0.00000000000000	0.14308900000000	-70.87920600000000	751.40274499999998	-50.31465700000000	0.06258000000000	0.00000000000000	-0.06631200000000	0.00000000000000	-7.06239100000000	0.00000000000000	0.00000000000000	-15.56277100000000	0.00000000000000	
4.08165100000000	0.15126200000000	158.69074200000000	-9.83504900000000	0.31339800000000	0.00000000000000	0.14338800000000	-71.90947900000000	745.74763399999995	-49.69089400000000	0.06162900000000	0.00000000000000	-0.06616200000000	0.00000000000000	-7.09891300000000	0.00000000000000	0.00000000000000	-15.54650600000000	0.00000000000000	
4.08331300000000	1.38624900000000	165.84232800000001	-9.32066400000000	0.31512100000000	0.00000000000000	0.14368000000000	-72.91105800000000	739.89081199999998	-49.04703000000000	0.06069300000000	0.00000000000000	-0.06600900000000	0.00000000000000	-7.12415100000000	0.00000000000000	0.00000000000000	-15.52745700000000	0.00000000000000	
4.08497600000000	2.65068000000000	173.16415499999999	-8.77403800000000	0.31678100000000	0.00000000000000	0.14396300000000	-73.88098300000000	733.83146399999998	-48.38321900000000	0.05977400000000	0.00000000000000	-0.06585300000000	0.00000000000000	-7.13663200000000	0.00000000000000	0.00000000000000	-15.50526000000000	0.00000000000000	
4.08664800000000	3.94705700000000	180.64096699999999	-8.19170700000000	0.31837600000000	0.00000000000000	0.14424000000000	-74.81629200000000	727.56904899999995	-47.69966200000000	0.05887200000000	0.00000000000000	-0.06569300000000	0.00000000000000	-7.13451800000000	0.00000000000000	0.00000000000000	-15.47955300000000	0.00000000000000	
4.08831300000000	5.27818200000000	188.25464400000001	-7.56984500000000	0.31990800000000	0.00000000000000	0.14451000000000	-75.71403599999999	721.10331699999995	-46.99661200000000	0.05798800000000	0.00000000000000	-0.06553000000000	0.00000000000000	-7.11578600000000	0.00000000000000	0.00000000000000	-15.44997400000000	0.00000000000000	
4.08998600000000	6.64666900000000	195.98572700000000	-6.90468100000000	0.32137700000000	0.00000000000000	0.14477400000000	-76.57128200000000	714.43432199999995	-46.27436800000000	0.05712100000000	0.00000000000000	-0.06536300000000	0.00000000000000	-7.07838900000000	0.00000000000000	0.00000000000000	-15.41616400000000	0.00000000000000	
4.09165100000000	8.05455500000000	203.81474100000000	-6.19283200000000	0.32278100000000	0.00000000000000	0.14503200000000	-77.38512700000000	707.56243400000005	-45.53328500000000	0.05627200000000	0.00000000000000	-0.06519300000000	0.00000000000000	-7.02040200000000	0.00000000000000	0.00000000000000	-15.37777000000000	0.00000000000000	
4.09331500000000	9.50303000000000	211.72325200000000	-5.43155700000000	0.32412000000000	0.00000000000000	0.14528500000000	-78.15270700000001	700.48834599999998	-44.77376700000000	0.05544100000000	0.00000000000000	-0.06501900000000	0.00000000000000	-6.94012600000000	0.00000000000000	0.00000000000000	-15.33444300000000	0.00000000000000	
4.09497700000000	10.99227100000000	219.69464199999999	-4.61891900000000	0.32539300000000	0.00000000000000	0.14553300000000	-78.87120800000000	693.21308499999998	-43.99626900000000	0.05462900000000	0.00000000000000	-0.06484200000000	0.00000000000000	-6.83616900000000	0.00000000000000	0.00000000000000	-15.28584300000000	0.00000000000000	
4.09664300000000	12.52138300000000	227.71459200000001	-3.75386800000000	0.32660000000000	0.00000000000000	0.14577500000000	-79.53787400000000	685.73801500000002	-43.20130200000000	0.05383400000000	0.00000000000000	-0.06466200000000	0.00000000000000	-6.70749000000000	0.00000000000000	0.00000000000000	-15.23163800000000	0.00000000000000	
4.09831100000000	14.08842300000000	235.77130500000001	-2.83624400000000	0.32773800000000	0.00000000000000	0.14601300000000	-80.15002200000001	678.06484200000000	-42.38942500000000	0.05305700000000	0.00000000000000	-0.06447800000000	0.00000000000000	-6.55341800000000	0.00000000000000	0.00000000000000	-15.17150800000000	0.00000000000000	
